<svg xmlns="http://www.w3.org/2000/svg" width="953" height="500" fill="none"><mask id="a" width="500" height="500" x="226" y="0" maskUnits="userSpaceOnUse" style="mask-type:alpha"><circle cx="476" cy="250" r="250" fill="#D9D9D9" fill-opacity=".93"/></mask><g mask="url(#a)"><path fill="url(#b)" d="M226 250h500v250H226z"/><path fill="url(#c)" d="M226 0h500v250H226z"/><path fill="#fff" d="M368.311 221.65c-4.05-2.1-9.3-4.65-18.6-4.65-42.45 0-42.45 65.4 0 65.4 9.3 0 16.65-2.7 20.7-4.8l2.85 22.2c-6.6 2.7-16.05 4.5-23.55 4.5-72.75 0-72.6-108.9 0-108.9 7.5 0 14.7 1.35 21.15 4.2l-2.55 22.05ZM467.995 304h-24.3l-21.6-40.95h-10.35V304h-21.45V196.75h42.3c38.25 0 42 53.85 10.5 63l24.9 44.25Zm-56.25-85.8v24h18.9c14.55 0 14.55-24 0-24h-18.9Zm124.092 0h-32.1v21.45h27.3v21.45h-27.3V304h-21.45V196.75h53.55v21.45Zm66.842 24 42.3-47.1h6.75V304h-21.75l.15-59.85-27.45 28.8-27.45-28.8V304h-21.75V195.1h6.9l42.3 47.1Z"/></g><defs><linearGradient id="b" x1="304" x2="619" y1="72" y2="460" gradientUnits="userSpaceOnUse"><stop stop-color="gold"/><stop offset="1" stop-color="#FFD075"/></linearGradient><linearGradient id="c" x1="307" x2="634" y1="53.5" y2="444.5" gradientUnits="userSpaceOnUse"><stop stop-color="#0265D4"/><stop offset="1" stop-color="#002072"/></linearGradient></defs></svg>