<svg xmlns="http://www.w3.org/2000/svg" width="953" height="500" fill="none"><mask id="a" width="500" height="500" x="226" y="0" maskUnits="userSpaceOnUse" style="mask-type:alpha"><circle cx="476" cy="250" r="250" fill="#D9D9D9" fill-opacity=".93"/></mask><g mask="url(#a)"><path fill="url(#b)" d="M226 250h500v250H226z"/><path fill="url(#c)" d="M226 0h500v250H226z"/><path fill="#fff" d="M339.093 214.69c-5.13-2.66-11.78-5.89-23.56-5.89-53.77 0-53.77 82.84 0 82.84 11.78 0 21.09-3.42 26.22-6.08l3.61 28.12c-8.36 3.42-20.33 5.7-29.83 5.7-92.15 0-91.96-137.94 0-137.94 9.5 0 18.62 1.71 26.79 5.32l-3.23 27.93ZM465.36 319h-30.78l-27.36-51.87h-13.11V319h-27.17V183.15h53.58c48.45 0 53.2 68.21 13.3 79.8L465.36 319Zm-71.25-108.68v30.4h23.94c18.43 0 18.43-30.4 0-30.4h-23.94Zm157.184 0h-40.66v27.17h34.58v27.17h-34.58V319h-27.17V183.15h67.83v27.17Zm84.665 30.4 53.58-59.66h8.55V319h-27.55l.19-75.81-34.77 36.48-34.77-36.48V319h-27.55V181.06h8.74l53.58 59.66Z"/></g><defs><linearGradient id="b" x1="304" x2="619" y1="72" y2="460" gradientUnits="userSpaceOnUse"><stop stop-color="gold"/><stop offset="1" stop-color="#FFD075"/></linearGradient><linearGradient id="c" x1="307" x2="634" y1="53.5" y2="444.5" gradientUnits="userSpaceOnUse"><stop stop-color="#0265D4"/><stop offset="1" stop-color="#002072"/></linearGradient></defs></svg>